<svg xmlns="http://www.w3.org/2000/svg" width="64" height="64" id="user"><defs><clipPath id="a"><path fill="#2c3842" fill-rule="evenodd" d="M-120.75-200.375a10.875 10.875 0 1 1-21.75 0 10.875 10.875 0 1 1 21.75 0z" transform="translate(211.655 1329.167) scale(1.47126)"></path></clipPath></defs><path fill="#2c3842" fill-rule="evenodd" d="M34 18.001c0 8.837-7.163 16-16 16-8.836 0-16-7.163-16-16 0-8.836 7.164-16 16-16 8.837 0 16 7.164 16 16z"></path><path fill="#b5bdc4" d="M14.597 1040.476c.198-.037-3.208 1.365-8.01 3.983-.93.508-1.242 1.477-1.242 2.537v3.572h25.31v-3.986c0-.95-.878-1.819-1.708-2.278-3.586-1.984-8.022-3.919-7.957-3.932z" clip-path="url(#a)" transform="translate(0 -1016.362)"></path><path fill="#fca" d="M21.092 24.839a3.311 3.311 0 1 1-6.622 0 3.311 3.311 0 0 1 6.622 0z"></path><path fill="#fca" d="M17.551 5.25c2.807 0 5.923 2.573 5.76 5.759l-.363 7.046c-.164 3.186-3.392 5.667-5.397 5.667-2.005 0-5.233-2.481-5.397-5.667l-.362-7.046c-.164-3.186 2.953-5.76 5.76-5.76z"></path><path fill="#fca" d="M24.454 16.827c.015 1.325-.637 2.406-1.456 2.415-.818.01-1.494-1.057-1.509-2.382-.015-1.324.637-2.406 1.456-2.415.819-.009 1.494 1.058 1.509 2.382zM13.728 16.827c.015 1.325-.637 2.406-1.456 2.415-.818.01-1.494-1.057-1.509-2.382-.015-1.324.637-2.406 1.456-2.415.819-.009 1.494 1.058 1.509 2.382z"></path><path d="M22.977 17.422c2.615-3.152 2.75-7.828-.402-10.443-2.488-2.064-6.404-2.874-8.393-.644-.617.693-1.486 1.054-2.05 1.615-2.302 2.288-1.814 6.053-.047 8.775v-3.25c0-1.337 1.776-1.915 3.547-1.915h3.313c2.054 0 4.154 1.355 4.09 3.727z"></path></svg>